<svg xmlns="http://www.w3.org/2000/svg" viewBox="0 0 220 100" width="220" height="100" font-family="-apple-system,Helvetica,Arial,sans-serif"><style>
  .fg { stroke: #2a2521; }
  .fgfill { fill: #2a2521; }
  .guide { stroke: #b8ac9a; }
  .muted { fill: #7a7268; }
  @media (prefers-color-scheme: dark) {
    .fg { stroke: #ece7df; }
    .fgfill { fill: #ece7df; }
    .guide { stroke: #5b5347; }
    .muted { fill: #a89f92; }
  }
</style><defs>
    <marker id="arrUp" markerWidth="8" markerHeight="8" refX="4" refY="0" orient="auto">
      <path d="M0,6 L4,0 L8,6 Z" class="fgfill"/>
    </marker>
    <marker id="arrDown" markerWidth="8" markerHeight="8" refX="4" refY="6" orient="auto">
      <path d="M0,0 L8,0 L4,6 Z" class="fgfill"/>
    </marker>
  </defs><rect width="220" height="100" fill="none"/><line x1="4" y1="20" x2="210" y2="20" class="guide" stroke-width="1" stroke-dasharray="2 3"/><text x="0" y="23" font-size="8" class="muted">H</text><line x1="4" y1="50" x2="210" y2="50" class="guide" stroke-width="1" stroke-dasharray="2 3"/><text x="0" y="53" font-size="8" class="muted">M</text><line x1="4" y1="80" x2="210" y2="80" class="guide" stroke-width="1" stroke-dasharray="2 3"/><text x="0" y="83" font-size="8" class="muted">L</text><line x1="10" y1="20" x2="10" y2="20" class="fg" marker-start="url(#arrDown)"/><line x1="12" y1="20" x2="30" y2="20" class="fg" stroke-width="2.5"/><line x1="30.0" y1="20.0" x2="33.3" y2="20.0" class="fg" stroke-width="2.5" stroke-linecap="round"/><line x1="39.3" y1="20.0" x2="42.6" y2="20.0" class="fg" stroke-width="2.2" stroke-linecap="round"/><line x1="48.7" y1="20.0" x2="51.9" y2="20.0" class="fg" stroke-width="1.9" stroke-linecap="round"/><line x1="58.0" y1="20.0" x2="61.3" y2="20.0" class="fg" stroke-width="1.6" stroke-linecap="round"/><line x1="67.3" y1="20.0" x2="70.6" y2="20.0" class="fg" stroke-width="1.4" stroke-linecap="round"/><line x1="76.7" y1="20.0" x2="79.9" y2="20.0" class="fg" stroke-width="1.1" stroke-linecap="round"/><line x1="90" y1="20" x2="210" y2="20" class="fg" stroke-width="3" stroke-linecap="round"/><text x="210" y="96" font-size="11" class="fgfill" text-anchor="end" font-weight="600">Acute Gradual</text></svg>